<mxfile host="app.diagrams.net" modified="2023-08-24T10:02:50.247Z" agent="Mozilla/5.0 (Windows NT 10.0; Win64; x64) AppleWebKit/537.36 (KHTML, like Gecko) Chrome/115.0.0.0 Safari/537.36" etag="V9Di_nSt1oLs__NDU2aN" version="21.6.8" type="device">
  <diagram id="C5RBs43oDa-KdzZeNtuy" name="Page-1">
    <mxGraphModel dx="3148" dy="1738" grid="1" gridSize="10" guides="1" tooltips="1" connect="1" arrows="1" fold="1" page="1" pageScale="1" pageWidth="827" pageHeight="1169" math="0" shadow="0">
      <root>
        <mxCell id="WIyWlLk6GJQsqaUBKTNV-0" />
        <mxCell id="WIyWlLk6GJQsqaUBKTNV-1" parent="WIyWlLk6GJQsqaUBKTNV-0" />
        <mxCell id="xALUO3HwdJlkxT8yfgA3-319" value="" style="html=1;whiteSpace=wrap;strokeWidth=5;" parent="WIyWlLk6GJQsqaUBKTNV-1" vertex="1">
          <mxGeometry x="480" y="10" width="1640" height="1830" as="geometry" />
        </mxCell>
        <mxCell id="xALUO3HwdJlkxT8yfgA3-321" value="&lt;font style=&quot;font-size: 60px;&quot;&gt;ผู้ดูแลระบบ&lt;/font&gt;" style="shape=umlActor;verticalLabelPosition=bottom;verticalAlign=top;html=1;strokeWidth=3;" parent="WIyWlLk6GJQsqaUBKTNV-1" vertex="1">
          <mxGeometry x="200" y="750" width="90" height="145" as="geometry" />
        </mxCell>
        <mxCell id="xALUO3HwdJlkxT8yfgA3-324" value="&lt;font style=&quot;font-size: 34px;&quot;&gt;&amp;nbsp;เข้าสู่ระบบ&lt;/font&gt;" style="ellipse;whiteSpace=wrap;html=1;strokeWidth=3;" parent="WIyWlLk6GJQsqaUBKTNV-1" vertex="1">
          <mxGeometry x="957.5" y="310" width="315" height="90" as="geometry" />
        </mxCell>
        <mxCell id="xALUO3HwdJlkxT8yfgA3-330" value="&lt;font style=&quot;font-size: 34px;&quot;&gt;จัดการข้อมูลห้องเรียน&lt;/font&gt;" style="ellipse;whiteSpace=wrap;html=1;strokeWidth=3;" parent="WIyWlLk6GJQsqaUBKTNV-1" vertex="1">
          <mxGeometry x="960" y="440" width="350" height="120" as="geometry" />
        </mxCell>
        <mxCell id="xALUO3HwdJlkxT8yfgA3-331" value="&lt;font style=&quot;font-size: 34px;&quot;&gt;&amp;nbsp;Import ข้อมูลนักศึกษาใหม่&lt;/font&gt;" style="ellipse;whiteSpace=wrap;html=1;strokeWidth=3;" parent="WIyWlLk6GJQsqaUBKTNV-1" vertex="1">
          <mxGeometry x="985" y="770" width="385" height="110.5" as="geometry" />
        </mxCell>
        <mxCell id="xALUO3HwdJlkxT8yfgA3-333" value="&lt;font style=&quot;font-size: 60px;&quot;&gt;Overview Use case diagram ระบบจองห้องเรียนออนไลน์&lt;/font&gt;" style="text;html=1;align=center;verticalAlign=middle;resizable=0;points=[];autosize=1;" parent="WIyWlLk6GJQsqaUBKTNV-1" vertex="1">
          <mxGeometry x="560" y="30" width="1450" height="90" as="geometry" />
        </mxCell>
        <mxCell id="xALUO3HwdJlkxT8yfgA3-338" value="&lt;font style=&quot;font-size: 34px;&quot;&gt;&amp;nbsp; Import ข้อมูลการลงทะเบียนเรียน&lt;/font&gt;" style="ellipse;whiteSpace=wrap;html=1;strokeWidth=3;" parent="WIyWlLk6GJQsqaUBKTNV-1" vertex="1">
          <mxGeometry x="1000" y="1180" width="510" height="121" as="geometry" />
        </mxCell>
        <mxCell id="xALUO3HwdJlkxT8yfgA3-343" value="&lt;font style=&quot;font-size: 34px;&quot;&gt;จัดการวันเริ่มต้น และวันสิ้นสุดภาคการศึกษา&lt;/font&gt;" style="ellipse;whiteSpace=wrap;html=1;strokeWidth=3;" parent="WIyWlLk6GJQsqaUBKTNV-1" vertex="1">
          <mxGeometry x="1120" y="1320" width="500" height="170" as="geometry" />
        </mxCell>
        <mxCell id="xALUO3HwdJlkxT8yfgA3-344" value="&lt;font style=&quot;font-size: 34px;&quot;&gt;จัดการข้อมูลนักศึกษา&lt;/font&gt;" style="ellipse;whiteSpace=wrap;html=1;strokeWidth=3;" parent="WIyWlLk6GJQsqaUBKTNV-1" vertex="1">
          <mxGeometry x="1410" y="870" width="370" height="136" as="geometry" />
        </mxCell>
        <mxCell id="xALUO3HwdJlkxT8yfgA3-345" value="&lt;font style=&quot;font-size: 34px;&quot;&gt;จัดการข้อมูลอาจารย์&lt;/font&gt;" style="ellipse;whiteSpace=wrap;html=1;strokeWidth=3;" parent="WIyWlLk6GJQsqaUBKTNV-1" vertex="1">
          <mxGeometry x="1300" y="669.5" width="385" height="110" as="geometry" />
        </mxCell>
        <mxCell id="xALUO3HwdJlkxT8yfgA3-346" value="&lt;font style=&quot;font-size: 34px;&quot;&gt;จัดการข้อมูลวิชา&lt;/font&gt;" style="ellipse;whiteSpace=wrap;html=1;strokeWidth=3;" parent="WIyWlLk6GJQsqaUBKTNV-1" vertex="1">
          <mxGeometry x="985" y="590" width="385" height="105" as="geometry" />
        </mxCell>
        <mxCell id="xALUO3HwdJlkxT8yfgA3-348" value="&lt;font style=&quot;font-size: 34px;&quot;&gt;แสดงปฏิทินการใช้ห้องเรียน&lt;/font&gt;" style="ellipse;whiteSpace=wrap;html=1;strokeWidth=3;" parent="WIyWlLk6GJQsqaUBKTNV-1" vertex="1">
          <mxGeometry x="1110" y="1670" width="460" height="140" as="geometry" />
        </mxCell>
        <mxCell id="xALUO3HwdJlkxT8yfgA3-350" value="&lt;font style=&quot;font-size: 34px;&quot;&gt;จัดการวิชาที่เปิดสอน&lt;br&gt;ในเทอมนั้น ๆ&lt;/font&gt;" style="ellipse;whiteSpace=wrap;html=1;strokeWidth=3;" parent="WIyWlLk6GJQsqaUBKTNV-1" vertex="1">
          <mxGeometry x="1380" y="1040" width="405" height="150" as="geometry" />
        </mxCell>
        <mxCell id="xALUO3HwdJlkxT8yfgA3-351" value="&lt;font style=&quot;font-size: 34px;&quot;&gt; จัดการข้อมูลการลงทะเบียน&lt;br&gt;เรียน&lt;br&gt;&lt;/font&gt;" style="ellipse;whiteSpace=wrap;html=1;strokeWidth=3;" parent="WIyWlLk6GJQsqaUBKTNV-1" vertex="1">
          <mxGeometry x="1010" y="930" width="420" height="110" as="geometry" />
        </mxCell>
        <mxCell id="xALUO3HwdJlkxT8yfgA3-361" value="" style="endArrow=none;html=1;rounded=0;entryX=0;entryY=0.5;entryDx=0;entryDy=0;strokeWidth=3;" parent="WIyWlLk6GJQsqaUBKTNV-1" target="xALUO3HwdJlkxT8yfgA3-324" edge="1">
          <mxGeometry width="50" height="50" relative="1" as="geometry">
            <mxPoint x="350" y="840" as="sourcePoint" />
            <mxPoint x="770" y="390" as="targetPoint" />
          </mxGeometry>
        </mxCell>
        <mxCell id="xALUO3HwdJlkxT8yfgA3-370" value="" style="endArrow=none;html=1;rounded=0;entryX=0;entryY=0.5;entryDx=0;entryDy=0;strokeWidth=3;" parent="WIyWlLk6GJQsqaUBKTNV-1" target="xALUO3HwdJlkxT8yfgA3-330" edge="1">
          <mxGeometry width="50" height="50" relative="1" as="geometry">
            <mxPoint x="390" y="830" as="sourcePoint" />
            <mxPoint x="710" y="465" as="targetPoint" />
          </mxGeometry>
        </mxCell>
        <mxCell id="xALUO3HwdJlkxT8yfgA3-371" value="" style="endArrow=none;html=1;rounded=0;entryX=0;entryY=0;entryDx=0;entryDy=0;strokeWidth=3;" parent="WIyWlLk6GJQsqaUBKTNV-1" target="xALUO3HwdJlkxT8yfgA3-338" edge="1">
          <mxGeometry width="50" height="50" relative="1" as="geometry">
            <mxPoint x="340" y="860" as="sourcePoint" />
            <mxPoint x="995" y="595" as="targetPoint" />
          </mxGeometry>
        </mxCell>
        <mxCell id="xALUO3HwdJlkxT8yfgA3-372" value="" style="endArrow=none;html=1;rounded=0;entryX=0;entryY=0.5;entryDx=0;entryDy=0;strokeWidth=3;" parent="WIyWlLk6GJQsqaUBKTNV-1" target="xALUO3HwdJlkxT8yfgA3-346" edge="1">
          <mxGeometry width="50" height="50" relative="1" as="geometry">
            <mxPoint x="380" y="830" as="sourcePoint" />
            <mxPoint x="1005" y="605" as="targetPoint" />
          </mxGeometry>
        </mxCell>
        <mxCell id="xALUO3HwdJlkxT8yfgA3-374" value="" style="endArrow=none;html=1;rounded=0;entryX=0;entryY=0.5;entryDx=0;entryDy=0;strokeWidth=3;" parent="WIyWlLk6GJQsqaUBKTNV-1" target="xALUO3HwdJlkxT8yfgA3-345" edge="1">
          <mxGeometry width="50" height="50" relative="1" as="geometry">
            <mxPoint x="370" y="830" as="sourcePoint" />
            <mxPoint x="695" y="775" as="targetPoint" />
          </mxGeometry>
        </mxCell>
        <mxCell id="xALUO3HwdJlkxT8yfgA3-375" value="" style="endArrow=none;html=1;rounded=0;entryX=0;entryY=0.5;entryDx=0;entryDy=0;strokeWidth=3;" parent="WIyWlLk6GJQsqaUBKTNV-1" target="xALUO3HwdJlkxT8yfgA3-331" edge="1">
          <mxGeometry width="50" height="50" relative="1" as="geometry">
            <mxPoint x="380" y="840" as="sourcePoint" />
            <mxPoint x="705" y="785" as="targetPoint" />
          </mxGeometry>
        </mxCell>
        <mxCell id="xALUO3HwdJlkxT8yfgA3-376" value="" style="endArrow=none;html=1;rounded=0;entryX=0;entryY=0.5;entryDx=0;entryDy=0;strokeWidth=3;" parent="WIyWlLk6GJQsqaUBKTNV-1" target="xALUO3HwdJlkxT8yfgA3-344" edge="1">
          <mxGeometry width="50" height="50" relative="1" as="geometry">
            <mxPoint x="370" y="850" as="sourcePoint" />
            <mxPoint x="700" y="905" as="targetPoint" />
          </mxGeometry>
        </mxCell>
        <mxCell id="xALUO3HwdJlkxT8yfgA3-378" value="" style="endArrow=none;html=1;rounded=0;entryX=0.064;entryY=0.212;entryDx=0;entryDy=0;entryPerimeter=0;strokeWidth=3;" parent="WIyWlLk6GJQsqaUBKTNV-1" target="xALUO3HwdJlkxT8yfgA3-351" edge="1">
          <mxGeometry width="50" height="50" relative="1" as="geometry">
            <mxPoint x="350" y="850" as="sourcePoint" />
            <mxPoint x="975" y="960" as="targetPoint" />
          </mxGeometry>
        </mxCell>
        <mxCell id="xALUO3HwdJlkxT8yfgA3-380" value="" style="endArrow=none;html=1;rounded=0;entryX=0;entryY=0.5;entryDx=0;entryDy=0;strokeWidth=3;" parent="WIyWlLk6GJQsqaUBKTNV-1" target="xALUO3HwdJlkxT8yfgA3-350" edge="1">
          <mxGeometry width="50" height="50" relative="1" as="geometry">
            <mxPoint x="350" y="860" as="sourcePoint" />
            <mxPoint x="700" y="1158" as="targetPoint" />
          </mxGeometry>
        </mxCell>
        <mxCell id="xALUO3HwdJlkxT8yfgA3-382" value="" style="endArrow=none;html=1;rounded=0;entryX=0;entryY=0.5;entryDx=0;entryDy=0;strokeWidth=3;" parent="WIyWlLk6GJQsqaUBKTNV-1" target="xALUO3HwdJlkxT8yfgA3-343" edge="1">
          <mxGeometry width="50" height="50" relative="1" as="geometry">
            <mxPoint x="340" y="860" as="sourcePoint" />
            <mxPoint x="647" y="1300" as="targetPoint" />
          </mxGeometry>
        </mxCell>
        <mxCell id="xALUO3HwdJlkxT8yfgA3-385" value="" style="endArrow=none;html=1;rounded=0;entryX=0;entryY=0.5;entryDx=0;entryDy=0;strokeWidth=3;" parent="WIyWlLk6GJQsqaUBKTNV-1" target="xALUO3HwdJlkxT8yfgA3-348" edge="1">
          <mxGeometry width="50" height="50" relative="1" as="geometry">
            <mxPoint x="330" y="860" as="sourcePoint" />
            <mxPoint x="647" y="1420" as="targetPoint" />
          </mxGeometry>
        </mxCell>
        <mxCell id="xALUO3HwdJlkxT8yfgA3-391" value="&lt;font style=&quot;font-size: 60px;&quot;&gt;&amp;nbsp;ผู้ใช้งาน&lt;/font&gt;" style="shape=umlActor;verticalLabelPosition=bottom;verticalAlign=top;html=1;strokeWidth=3;" parent="WIyWlLk6GJQsqaUBKTNV-1" vertex="1">
          <mxGeometry x="2290" y="770" width="90" height="175" as="geometry" />
        </mxCell>
        <mxCell id="xALUO3HwdJlkxT8yfgA3-392" value="&lt;font style=&quot;font-size: 34px;&quot;&gt;จองห้องเรียน&lt;/font&gt;" style="ellipse;whiteSpace=wrap;html=1;strokeWidth=3;" parent="WIyWlLk6GJQsqaUBKTNV-1" vertex="1">
          <mxGeometry x="1640" y="180" width="320" height="90" as="geometry" />
        </mxCell>
        <mxCell id="xALUO3HwdJlkxT8yfgA3-393" value="&lt;font style=&quot;font-size: 34px;&quot;&gt;ยกเลิกการจองห้องเรียน&lt;/font&gt;" style="ellipse;whiteSpace=wrap;html=1;strokeWidth=3;" parent="WIyWlLk6GJQsqaUBKTNV-1" vertex="1">
          <mxGeometry x="1390" y="380" width="410" height="120" as="geometry" />
        </mxCell>
        <mxCell id="xALUO3HwdJlkxT8yfgA3-401" value="" style="endArrow=none;html=1;rounded=0;exitX=1;exitY=1;exitDx=0;exitDy=0;strokeWidth=3;" parent="WIyWlLk6GJQsqaUBKTNV-1" source="xALUO3HwdJlkxT8yfgA3-392" edge="1">
          <mxGeometry width="50" height="50" relative="1" as="geometry">
            <mxPoint x="1245" y="670" as="sourcePoint" />
            <mxPoint x="2270" y="860" as="targetPoint" />
          </mxGeometry>
        </mxCell>
        <mxCell id="xALUO3HwdJlkxT8yfgA3-404" value="" style="endArrow=none;html=1;rounded=0;exitX=1;exitY=1;exitDx=0;exitDy=0;strokeWidth=3;" parent="WIyWlLk6GJQsqaUBKTNV-1" source="xALUO3HwdJlkxT8yfgA3-324" edge="1">
          <mxGeometry width="50" height="50" relative="1" as="geometry">
            <mxPoint x="1349" y="220" as="sourcePoint" />
            <mxPoint x="2260" y="870" as="targetPoint" />
          </mxGeometry>
        </mxCell>
        <mxCell id="xALUO3HwdJlkxT8yfgA3-405" value="" style="endArrow=none;html=1;rounded=0;exitX=0.5;exitY=1;exitDx=0;exitDy=0;strokeWidth=3;" parent="WIyWlLk6GJQsqaUBKTNV-1" source="xALUO3HwdJlkxT8yfgA3-393" edge="1">
          <mxGeometry width="50" height="50" relative="1" as="geometry">
            <mxPoint x="1135" y="370" as="sourcePoint" />
            <mxPoint x="2260" y="860" as="targetPoint" />
          </mxGeometry>
        </mxCell>
        <mxCell id="xALUO3HwdJlkxT8yfgA3-406" value="" style="endArrow=none;html=1;rounded=0;exitX=1;exitY=0.5;exitDx=0;exitDy=0;strokeWidth=3;" parent="WIyWlLk6GJQsqaUBKTNV-1" source="xALUO3HwdJlkxT8yfgA3-348" edge="1">
          <mxGeometry width="50" height="50" relative="1" as="geometry">
            <mxPoint x="1555" y="570" as="sourcePoint" />
            <mxPoint x="2250" y="890" as="targetPoint" />
          </mxGeometry>
        </mxCell>
        <mxCell id="b9DNksamteSVhxXWaYHM-0" value="&lt;font style=&quot;font-size: 34px;&quot;&gt;ตรวจสอบคำร้องจองห้องเรียน&lt;/font&gt;" style="ellipse;whiteSpace=wrap;html=1;strokeWidth=3;" parent="WIyWlLk6GJQsqaUBKTNV-1" vertex="1">
          <mxGeometry x="1160" y="1510" width="395" height="149" as="geometry" />
        </mxCell>
        <mxCell id="b9DNksamteSVhxXWaYHM-1" value="" style="endArrow=none;html=1;rounded=0;entryX=0;entryY=0.5;entryDx=0;entryDy=0;strokeWidth=3;" parent="WIyWlLk6GJQsqaUBKTNV-1" target="b9DNksamteSVhxXWaYHM-0" edge="1">
          <mxGeometry width="50" height="50" relative="1" as="geometry">
            <mxPoint x="350" y="870" as="sourcePoint" />
            <mxPoint x="1130" y="1415" as="targetPoint" />
          </mxGeometry>
        </mxCell>
        <mxCell id="b9DNksamteSVhxXWaYHM-2" value="&lt;font style=&quot;font-size: 34px;&quot;&gt;&lt;font style=&quot;border-color: var(--border-color); font-size: 34px;&quot;&gt;เเก้ไข&amp;nbsp;&lt;/font&gt;Password&lt;/font&gt;" style="ellipse;whiteSpace=wrap;html=1;strokeWidth=3;" parent="WIyWlLk6GJQsqaUBKTNV-1" vertex="1">
          <mxGeometry x="1210" y="170" width="410" height="120" as="geometry" />
        </mxCell>
        <mxCell id="b9DNksamteSVhxXWaYHM-3" value="" style="endArrow=none;html=1;rounded=0;exitX=1;exitY=0.5;exitDx=0;exitDy=0;strokeWidth=3;" parent="WIyWlLk6GJQsqaUBKTNV-1" source="b9DNksamteSVhxXWaYHM-2" edge="1">
          <mxGeometry width="50" height="50" relative="1" as="geometry">
            <mxPoint x="1655" y="500" as="sourcePoint" />
            <mxPoint x="2270" y="870" as="targetPoint" />
          </mxGeometry>
        </mxCell>
      </root>
    </mxGraphModel>
  </diagram>
</mxfile>
